<?xml version="1.0" encoding="UTF-8"?>
<svg version="1.1" xmlns="http://www.w3.org/2000/svg" width="866" height="243">
<path d="M0 0 C0.495 0.99 0.495 0.99 1 2 C-0.051875 3.0209375 -0.051875 3.0209375 -1.125 4.0625 C-2.08569926 5.03934547 -3.04388971 6.01866252 -4 7 C-4.45761719 7.44988281 -4.91523437 7.89976563 -5.38671875 8.36328125 C-18.35390549 22.11205185 -23.3596924 41.7698777 -23.22265625 60.171875 C-22.64946541 70.02673497 -20.09958999 79.65726423 -17 89 C-15.97519531 88.72285156 -14.95039062 88.44570312 -13.89453125 88.16015625 C-12.53387669 87.79418709 -11.17319834 87.42830635 -9.8125 87.0625 C-8.80219727 86.78889648 -8.80219727 86.78889648 -7.77148438 86.50976562 C7.75255196 82.34478027 21.78673096 83.81544108 37.375 86.875 C38.06793152 87.00987823 38.76086304 87.14475647 39.47479248 87.28372192 C52.07175845 89.76407239 52.07175845 89.76407239 56 92 C56.495 90.515 56.495 90.515 57 89 C59.48095703 87.83325195 59.48095703 87.83325195 62.7578125 86.73828125 C63.94117188 86.34189453 65.12453125 85.94550781 66.34375 85.53710938 C67.5915625 85.13298828 68.839375 84.72886719 70.125 84.3125 C71.96191406 83.68891602 71.96191406 83.68891602 73.8359375 83.05273438 C79.75127424 81.10336204 84.70092576 79.53599103 91 80 C92.485 80.99 92.485 80.99 94 82 C94.1875 84.625 94.1875 84.625 94 87 C85.22795132 92.16099857 76.30530989 97.03766672 67.34020996 101.85299683 C66.07565576 102.5322272 64.81157341 103.21233679 63.54797363 103.89334106 C61.74056861 104.86672116 59.93116752 105.83628091 58.12109375 106.8046875 C57.0633374 107.37171387 56.00558105 107.93874023 54.91577148 108.52294922 C43.71263199 114.19815595 34.11308443 111.66954372 22.1875 109.0625 C12.77157789 107.01390715 3.63660886 105.46344541 -6 105 C5.93571875 120.05332663 23.01142213 129.34002466 42 132 C62.73590443 133.96122011 82.2235717 129.07512722 99 116.5 C100.35365304 115.35697229 101.68798032 114.19058526 103 113 C103.67160156 112.40832031 104.34320313 111.81664062 105.03515625 111.20703125 C117.18246977 99.85549549 122.66876858 85.64505554 127 70 C127.33 70 127.66 70 128 70 C128.16548032 75.51601078 127.72882918 80.39558481 126.3125 85.75 C126.04131348 86.78979004 126.04131348 86.78979004 125.76464844 87.85058594 C119.80537753 109.87044728 106.30434833 127.38461509 86.6484375 138.9765625 C67.15251256 149.31864458 44.29211925 152.26783225 23 146 C-0.4036605 137.94246187 -17.39847169 122.73965252 -28.25 100.5625 C-37.08020437 80.75929501 -37.38797101 58.51963695 -30.05029297 38.22387695 C-24.14756757 22.93187261 -13.73478891 9.09258372 0 0 Z M57 93 C56.814375 93.78375 56.62875 94.5675 56.4375 95.375 C55 98 55 98 52 99.25 C47.40173046 100.28047901 42.69079269 100.64134784 38 101 C38 101.33 38 101.66 38 102 C47.69612589 102.3245629 47.69612589 102.3245629 57 100 C57.66 99.34 58.32 98.68 59 98 C58.67958603 95.39719432 58.67958603 95.39719432 58 93 C57.67 93 57.34 93 57 93 Z " fill="#3DB7A2" transform="translate(91,46)"/>
<path d="M0 0 C15.92003517 12.57249908 24.57292053 29.78438942 27.32714844 49.76855469 C28.98179748 67.72036346 22.98117606 85.35407441 11.61621094 99.24121094 C11.19082031 99.74523437 10.76542969 100.24925781 10.32714844 100.76855469 C9.70839844 101.63480469 9.08964844 102.50105469 8.45214844 103.39355469 C5.4706032 106.72586995 1.96805373 109.19694439 -1.67285156 111.76855469 C-2.33285156 111.43855469 -2.99285156 111.10855469 -3.67285156 110.76855469 C-2.68285156 110.43855469 -1.69285156 110.10855469 -0.67285156 109.76855469 C0.03624279 108.45729292 0.69754352 107.11978371 1.32714844 105.76855469 C2.38960009 104.45965806 3.47512894 103.169316 4.57714844 101.89355469 C15.367316 88.2425285 17.70644123 71.58903028 16.32714844 54.76855469 C13.96504165 38.0596775 4.76376268 22.89469876 -8.67285156 12.76855469 C-23.69599024 2.35251187 -40.85365065 -1.14385488 -58.79785156 1.76855469 C-74.92397108 5.24162188 -89.47003868 14.10054339 -98.85644531 27.77246094 C-103.61738121 35.62544553 -106.9995432 44.00604396 -109.67285156 52.76855469 C-110.00285156 52.76855469 -110.33285156 52.76855469 -110.67285156 52.76855469 C-109.97608625 33.11977297 -101.63792024 17.23840817 -87.67285156 3.76855469 C-63.45745877 -18.41854025 -26.08343697 -19.20094222 0 0 Z " fill="#344689" transform="translate(185.6728515625,46.2314453125)"/>
<path d="M0 0 C1.34882408 0.63474075 2.6846659 1.29848848 4 2 C5.3242287 2.36784131 6.65613912 2.71202981 8 3 C9.47006623 7.41019868 8.43537323 10.69388031 7 15 C8.32 15.33 9.64 15.66 11 16 C10.67 17.98 10.34 19.96 10 22 C10.58007812 22.12117188 11.16015625 22.24234375 11.7578125 22.3671875 C16.28028442 23.33735474 20.63750966 24.43397783 25 26 C24.505 24.515 24.505 24.515 24 23 C25.32 22.34 26.64 21.68 28 21 C28.66 21.99 29.32 22.98 30 24 C33.18057553 23.20741702 33.18057553 23.20741702 35.3125 20.5 C38.37685864 17.64943382 39.8788128 17.17536967 44 17 C46.375 17.4375 46.375 17.4375 48 18 C47.6875 20.875 47.6875 20.875 47 24 C46.01 24.66 45.02 25.32 44 26 C42.7811879 29.55672179 42.7811879 29.55672179 42 33 C41.34 33 40.68 33 40 33 C40 34.98 40 36.96 40 39 C34.125 37.125 34.125 37.125 33 36 C32.95936168 34.33382885 32.957279 32.66611905 33 31 C31.68 31 30.36 31 29 31 C29.268125 32.216875 29.53625 33.43375 29.8125 34.6875 C30.26844145 38.63899254 30.26844145 38.63899254 28.1875 41.4375 C27.13489414 42.3038301 26.07018629 43.15548343 25 44 C23.30785997 45.53657232 21.62075332 47.07869776 19.9375 48.625 C15.24253159 52.86421647 15.24253159 52.86421647 12.78125 54.2421875 C9.48939507 57.49072855 9.7873816 62.4115647 9.31054688 66.83984375 C8.53365566 72.55024158 8.53365566 72.55024158 5.58984375 75.03125 C3 76 3 76 0 76 C-3.09078508 72.84597635 -4.17958732 69.06022715 -5.5625 64.9375 C-6.81135007 61.22985477 -7.82705609 58.25941587 -10 55 C-10.4140625 52.08203125 -10.4140625 52.08203125 -10.625 48.8125 C-10.69976562 47.72582031 -10.77453125 46.63914063 -10.8515625 45.51953125 C-10.90054688 44.68808594 -10.94953125 43.85664062 -11 43 C-11.77859375 43.03222656 -12.5571875 43.06445312 -13.359375 43.09765625 C-16 43 -16 43 -18.25 41.4375 C-20.48342371 38.32665983 -20.70980098 35.77258731 -21 32 C-18.03 31.505 -18.03 31.505 -15 31 C-15.5259375 30.13375 -15.5259375 30.13375 -16.0625 29.25 C-17 27 -17 27 -17 24.9375 C-16 23 -16 23 -13.25 21.75 C-8.89200107 19.40338519 -7.29172029 16.26908957 -5 12 C-5.66 12 -6.32 12 -7 12 C-7.185625 10.2984375 -7.185625 10.2984375 -7.375 8.5625 C-7.58125 7.386875 -7.7875 6.21125 -8 5 C-8.66 4.67 -9.32 4.34 -10 4 C-7.55736066 -1.4087014 -5.65760416 -1.24467292 0 0 Z " fill="#F8F9F9" transform="translate(131,54)"/>
<path d="M0 0 C3.71285027 2.86439272 6.49465686 5.41659148 7.9375 9.9375 C7.958125 10.618125 7.97875 11.29875 8 12 C6.1875 13.5625 6.1875 13.5625 4 15 C-0.02152847 13.65949051 -0.70273254 11.48070827 -3 8 C-6.30259924 5.09771582 -8.88157448 4.08440947 -13.3125 3.75 C-17.4208273 4.02853066 -19.60444306 4.68484754 -23 7 C-25.95455268 11.33334393 -26.5660929 14.81081509 -26 20 C-22.87741909 28.19677488 -11.47252254 31.93133442 -4.09179688 35.60546875 C2.17863902 38.82832579 6.7236759 42.611168 10 49 C12.22993044 56.49504399 11.37437726 63.99463884 8 71 C3.88778352 77.75869243 -2.56274845 81.33510515 -10.015625 83.6171875 C-18.34494095 85.22402404 -27.02221027 84.01709836 -34.30078125 79.60546875 C-37.75969784 77.10771363 -40.75696011 74.68550927 -43 71 C-42 68 -42 68 -38.9375 66.3125 C-37.968125 65.879375 -36.99875 65.44625 -36 65 C-35.484375 65.9075 -34.96875 66.815 -34.4375 67.75 C-32.01063091 71.33090475 -29.09179732 73.57990564 -25 75 C-19.40670737 75.86725269 -14.69889833 75.35635595 -10 72 C-6.88984289 67.54210814 -6.09712257 63.28979952 -7 58 C-10.58868093 49.84390699 -19.59235875 46.65939051 -27.1875 43 C-33.67634084 39.78894123 -40.00649451 36.33009051 -42.5625 29.109375 C-44.06367332 21.87157508 -43.80598138 14.66142867 -40.390625 8.03515625 C-31.28470971 -5.29119731 -13.72283261 -8.21927978 0 0 Z " fill="#324588" transform="translate(302,69)"/>
<path d="M0 0 C4.29 0 8.58 0 13 0 C13 29.7 13 59.4 13 90 C-20.73214286 90 -20.73214286 90 -29.58984375 81.46875 C-36.37439684 74.16996428 -37.58364115 67.27349904 -37.3515625 57.41015625 C-36.5880754 50.00433134 -33.27251473 44.15268485 -28 39 C-18.26417625 33.04396665 -12.89227633 34 0 34 C0 22.78 0 11.56 0 0 Z M-17 42 C-22.84874061 47.84874061 -23.9777405 54.81797104 -24.25 62.8125 C-24.16045469 69.41895407 -22.80983631 74.76151824 -18.625 79.9375 C-12.28053817 84.9224343 -8.52489618 84 0 84 C0 69.48 0 54.96 0 40 C-9.0955315 38.84989183 -9.0955315 38.84989183 -17 42 Z " fill="#3EB8A3" transform="translate(718,61)"/>
<path d="M0 0 C1.66869141 -0.01836914 1.66869141 -0.01836914 3.37109375 -0.03710938 C12.34509736 -0.05296451 20.89869056 0.10066334 28 6.1875 C31.05146436 10.66298107 31.95053785 14.89617264 31 20.1875 C28.75345481 24.59738501 26.47912757 27.06580799 22 29.1875 C21.34 29.1875 20.68 29.1875 20 29.1875 C20.39380859 29.93435059 20.78761719 30.68120117 21.19335938 31.45068359 C22.65025028 34.21834527 24.10346567 36.98789558 25.55419922 39.75878906 C26.18326087 40.95845542 26.81378877 42.15735409 27.44580078 43.35546875 C28.35312345 45.07610578 29.25477152 46.79973139 30.15625 48.5234375 C30.70087891 49.56032715 31.24550781 50.5972168 31.80664062 51.66552734 C33 54.1875 33 54.1875 33 56.1875 C28.05 56.1875 23.1 56.1875 18 56.1875 C17.48050781 55.14851563 16.96101562 54.10953125 16.42578125 53.0390625 C16.08998047 52.36762207 15.75417969 51.69618164 15.40820312 51.00439453 C14.67591171 49.53948538 13.94414337 48.07431463 13.21289062 46.60888672 C11.60555121 43.38921173 9.9927646 40.17333856 8.35546875 36.96875 C7.90816406 36.0921875 7.46085937 35.215625 7 34.3125 C6.608125 33.55195313 6.21625 32.79140625 5.8125 32.0078125 C5 30.1875 5 30.1875 5 28.1875 C5.62648438 27.99414062 6.25296875 27.80078125 6.8984375 27.6015625 C7.71570313 27.34117188 8.53296875 27.08078125 9.375 26.8125 C10.18710937 26.55726562 10.99921875 26.30203125 11.8359375 26.0390625 C14.16459185 25.28895717 14.16459185 25.28895717 16 23.1875 C16.72007335 17.98781246 17.19593708 12.90167649 14.125 8.5 C11.11665385 7.23649462 9.01596706 6.88482396 5.8046875 6.60546875 C4.90476074 6.52449951 4.00483398 6.44353027 3.07763672 6.36010742 C2.3920166 6.30314697 1.70639648 6.24618652 1 6.1875 C1.00222061 6.79915512 1.00444122 7.41081024 1.00672913 8.04100037 C1.02878122 14.38320331 1.04390627 20.72539544 1.05493164 27.06762695 C1.05997341 29.43742312 1.06680665 31.80721615 1.07543945 34.17700195 C1.0875119 37.57504039 1.09322971 40.97303785 1.09765625 44.37109375 C1.10281754 45.43774765 1.10797882 46.50440155 1.11329651 47.6033783 C1.11337204 48.58431961 1.11344757 49.56526093 1.11352539 50.57592773 C1.115746 51.44418686 1.11796661 52.31244598 1.12025452 53.20701599 C1 55.1875 1 55.1875 0 56.1875 C-1.99799572 56.28623816 -3.99957158 56.31721799 -6 56.3125 C-7.093125 56.31507813 -8.18625 56.31765625 -9.3125 56.3203125 C-12 56.1875 -12 56.1875 -13 55.1875 C-13.0987517 53.50494765 -13.12798904 51.81825972 -13.12939453 50.1328125 C-13.13254669 49.05499512 -13.13569885 47.97717773 -13.13894653 46.86669922 C-13.1369223 45.69381348 -13.13489807 44.52092773 -13.1328125 43.3125 C-13.13376923 42.1177002 -13.13472595 40.92290039 -13.13571167 39.69189453 C-13.13639371 37.1598302 -13.13453778 34.62776412 -13.13037109 32.09570312 C-13.12502321 28.2043874 -13.13031533 24.31318711 -13.13671875 20.421875 C-13.13605797 17.96874974 -13.13477682 15.51562456 -13.1328125 13.0625 C-13.13483673 11.88961426 -13.13686096 10.71672852 -13.13894653 9.50830078 C-13.13579437 8.4304834 -13.13264221 7.35266602 -13.12939453 6.2421875 C-13.12859894 5.28812012 -13.12780334 4.33405273 -13.12698364 3.35107422 C-12.80060621 -2.20981358 -4.19707968 0.00236588 0 0 Z " fill="#3B4D8D" transform="translate(498,94.8125)"/>
<path d="M0 0 C5.61 0 11.22 0 17 0 C17.02255075 10.80458457 17.04091493 21.60915363 17.05181217 32.41375637 C17.05704107 37.4302247 17.06413883 42.44667615 17.07543945 47.46313477 C17.0862681 52.30009694 17.09227679 57.13704284 17.09487724 61.97401619 C17.09673153 63.82368285 17.10035222 65.67334857 17.10573006 67.52300835 C17.1129402 70.10447014 17.11399095 72.68586382 17.11352539 75.26733398 C17.11712067 76.03985001 17.12071594 76.81236603 17.12442017 77.60829163 C17.11405216 82.88594784 17.11405216 82.88594784 16 84 C13.48863896 84.09975032 11.01096585 84.13882183 8.5 84.125 C7.79746094 84.12886719 7.09492187 84.13273437 6.37109375 84.13671875 C1.12661378 84.12661378 1.12661378 84.12661378 0 83 C-0.09507821 80.41360962 -0.12556376 77.8540144 -0.11352539 75.26733398 C-0.11367142 74.4576416 -0.11381744 73.64794922 -0.1139679 72.8137207 C-0.11326854 70.12448492 -0.1054751 67.43531751 -0.09765625 64.74609375 C-0.09579215 62.88664284 -0.09436821 61.02719144 -0.09336853 59.16773987 C-0.08954271 54.26370904 -0.07971188 49.35970764 -0.06866455 44.45568848 C-0.05845181 39.45548908 -0.05387121 34.45528494 -0.04882812 29.45507812 C-0.03808967 19.63670372 -0.02049235 9.8183589 0 0 Z " fill="#46BAA6" transform="translate(592,67)"/>
<path d="M0 0 C4.54859421 3.34668166 7.1226403 6.31978218 9.83203125 11.359375 C10.15411057 11.9492218 10.47618988 12.5390686 10.80802917 13.14678955 C11.82147076 15.00834697 12.81739244 16.87858927 13.8125 18.75 C14.82920403 20.63346164 15.8493823 22.5150012 16.87052917 24.39605713 C17.78771273 26.09002222 18.69644359 27.78855583 19.60473633 29.48730469 C20.77570978 31.86734959 20.77570978 31.86734959 22 33 C22.33 22.44 22.66 11.88 23 1 C24.98 1 26.96 1 29 1 C29.07593214 8.77784995 29.12855012 16.55560468 29.16479492 24.33374023 C29.1799012 26.98091199 29.2003873 29.62805864 29.22631836 32.27514648 C29.26261991 36.07542101 29.27970803 39.87536526 29.29296875 43.67578125 C29.30845261 44.86335526 29.32393646 46.05092926 29.33988953 47.27449036 C29.34011612 48.37540512 29.34034271 49.47631989 29.34057617 50.6105957 C29.34723801 51.58100296 29.35389984 52.55141022 29.36076355 53.55122375 C29 56 29 56 27.63154602 57.83317566 C26 59 26 59 23.5546875 59.05859375 C19.88704281 57.53882049 19.05819377 55.51352262 17.125 52.0625 C16.76204834 51.42731445 16.39909668 50.79212891 16.02514648 50.13769531 C15.17827528 48.65366086 14.33862237 47.16549479 13.50439453 45.67431641 C11.41130001 41.95348592 9.27189449 38.25975336 7.13439941 34.56434631 C6.79662476 33.98035568 6.4588501 33.39636505 6.11083984 32.79467773 C5.7721991 32.20919159 5.43355835 31.62370544 5.08465576 31.02047729 C4.07135582 29.26533917 3.06165609 27.50818222 2.05322266 25.75024414 C1.42851074 24.66219482 0.80379883 23.57414551 0.16015625 22.453125 C-0.40050537 21.47504883 -0.96116699 20.49697266 -1.53881836 19.48925781 C-2.63384336 17.62378164 -3.80011782 15.79982328 -5 14 C-5.03758423 15.90060181 -5.03758423 15.90060181 -5.07592773 17.83959961 C-5.16981996 22.52297779 -5.27008435 27.2062013 -5.37231445 31.8894043 C-5.41573241 33.91964104 -5.45740226 35.94991592 -5.49731445 37.98022461 C-5.55485146 40.89188151 -5.61859278 43.80334514 -5.68359375 46.71484375 C-5.70030624 47.6283812 -5.71701874 48.54191864 -5.73423767 49.48313904 C-5.88612829 55.88612829 -5.88612829 55.88612829 -7 57 C-9.5 57.125 -9.5 57.125 -12 57 C-13.60082067 55.39917933 -13.1433286 53.70046341 -13.16113281 51.48364258 C-13.17074036 50.52206741 -13.1803479 49.56049225 -13.19024658 48.56977844 C-13.19449646 47.52194687 -13.19874634 46.4741153 -13.203125 45.39453125 C-13.20882507 44.32257004 -13.21452515 43.25060883 -13.22039795 42.14616394 C-13.22986707 39.87048332 -13.23638948 37.59478887 -13.24023438 35.3190918 C-13.24991048 31.84464316 -13.28090415 28.37079325 -13.3125 24.89648438 C-13.31903269 22.68750352 -13.32428212 20.47851842 -13.328125 18.26953125 C-13.3404718 17.23182083 -13.3528186 16.19411041 -13.36553955 15.12495422 C-13.34884315 9.68761287 -13.16606734 5.65323256 -10 1 C-6.81929763 -0.59035119 -3.41669549 -0.78937448 0 0 Z " fill="#47BBA7" transform="translate(640,94)"/>
<path d="M0 0 C5.71874744 2.85937372 6.9395253 8.33589727 9 14 C10.0823776 17.27065218 11.06143149 20.56492522 12.015625 23.875 C12.27631775 24.76614502 12.5370105 25.65729004 12.80560303 26.57543945 C13.34900061 28.43681219 13.89001718 30.2988816 14.42871094 32.16162109 C15.25644341 35.02226846 16.09249299 37.88039032 16.9296875 40.73828125 C17.45881826 42.5545463 17.98748138 44.37094766 18.515625 46.1875 C18.8905307 47.47019775 18.8905307 47.47019775 19.27301025 48.77880859 C21 54.76811369 21 54.76811369 21 57 C16.71 57 12.42 57 8 57 C5.67655536 51.19138841 4.40302871 46.31362918 3 40 C-3.6 40 -10.2 40 -17 40 C-17.268125 41.505625 -17.53625 43.01125 -17.8125 44.5625 C-18.70257892 49.06412219 -20.02454462 52.8695024 -22 57 C-23.98 57 -25.96 57 -28 57 C-25.38986425 46.32159198 -22.62875291 35.69457453 -19.64550781 25.11401367 C-19.21004612 23.561405 -18.77982226 22.007319 -18.35449219 20.4519043 C-17.7270611 18.15854369 -17.0840831 15.87005574 -16.4375 13.58203125 C-16.25195557 12.89244827 -16.06641113 12.2028653 -15.87524414 11.49238586 C-14.6421995 7.21481403 -13.05833571 4.23812649 -10 1 C-6.77984756 -0.61007622 -3.49185643 -0.45077915 0 0 Z M-8 9 C-8.9860117 12.03949018 -9.96256125 15.08194176 -10.9375 18.125 C-11.35418945 19.40890625 -11.35418945 19.40890625 -11.77929688 20.71875 C-12.04677734 21.55664062 -12.31425781 22.39453125 -12.58984375 23.2578125 C-12.83597412 24.0223877 -13.08210449 24.78696289 -13.33569336 25.57470703 C-14.09195295 28.33570768 -14.52937497 31.1762498 -15 34 C-9.72 34 -4.44 34 1 34 C0.4026523 31.33164478 -0.20267117 28.66550637 -0.8125 26 C-0.97814453 25.25621094 -1.14378906 24.51242188 -1.31445312 23.74609375 C-2.49183797 18.63668783 -4.06664718 13.87492975 -6 9 C-6.66 9 -7.32 9 -8 9 Z " fill="#44BAA5" transform="translate(798,94)"/>
<path d="M0 0 C4.29 0 8.58 0 13 0 C13.01981934 1.18553467 13.03963867 2.37106934 13.06005859 3.5925293 C13.13625789 8.00029367 13.22495323 12.4077341 13.31738281 16.81518555 C13.35561339 18.72104486 13.39047655 20.62697487 13.421875 22.53295898 C13.46765422 25.27613553 13.5256273 28.01882788 13.5859375 30.76171875 C13.59748871 31.61086349 13.60903992 32.46000824 13.62094116 33.33488464 C13.74930546 38.5060532 14.04726705 42.73482978 17.5625 46.8125 C21.31637551 48.64131115 24.90762514 48.69209281 29 48 C32.03215675 45.80168636 32.81654398 44.55036806 34 41 C34.10754191 39.67065291 34.1656188 38.33689495 34.18945312 37.00341797 C34.21452942 35.80735428 34.21452942 35.80735428 34.2401123 34.58712769 C34.25368774 33.73079742 34.26726318 32.87446716 34.28125 31.9921875 C34.29965942 31.11096222 34.31806885 30.22973694 34.33703613 29.32180786 C34.41577833 25.54815889 34.48365404 21.77433331 34.55224609 18.00048828 C34.6038297 15.24762757 34.66111817 12.49492713 34.71875 9.7421875 C34.73232544 8.88180878 34.74590088 8.02143005 34.7598877 7.13497925 C34.88715199 1.11284801 34.88715199 1.11284801 36 0 C37.66617115 -0.04063832 39.33388095 -0.042721 41 0 C41.1273395 6.2619848 41.21457581 12.52363268 41.2746582 18.78662109 C41.29971889 20.91467771 41.33377691 23.04264897 41.37719727 25.17041016 C41.43822089 28.23882163 41.46629474 31.30608995 41.48828125 34.375 C41.51408768 35.31802979 41.5398941 36.26105957 41.56648254 37.23266602 C41.56918654 43.67898466 40.24623438 48.06035328 36 53 C30.99049274 57.19982575 25.43253965 58.09088361 19 58 C13.55982135 57.37413874 9.24353733 55.47198509 5 52 C1.32069695 47.2268501 -0.13143965 43.63796541 -0.11352539 37.69042969 C-0.11344986 36.84986023 -0.11337433 36.00929077 -0.11329651 35.14324951 C-0.10813522 34.24519592 -0.10297394 33.34714233 -0.09765625 32.421875 C-0.0962413 31.4953009 -0.09482635 30.56872681 -0.09336853 29.61407471 C-0.08777824 26.65935008 -0.0752275 23.70470167 -0.0625 20.75 C-0.05748375 18.74479276 -0.05292106 16.73958433 -0.04882812 14.734375 C-0.03781199 9.82288737 -0.020554 4.9114566 0 0 Z " fill="#36488A" transform="translate(429,95)"/>
<path d="M0 0 C1.92682617 0.00290039 1.92682617 0.00290039 3.89257812 0.00585938 C4.55281982 0.01206299 5.21306152 0.0182666 5.89331055 0.0246582 C7.92965022 0.04307439 9.96553831 0.04516649 12.00195312 0.04492188 C21.96514058 0.09014058 21.96514058 0.09014058 23.10546875 1.23046875 C23.10546875 2.88046875 23.10546875 4.53046875 23.10546875 6.23046875 C15.51546875 6.56046875 7.92546875 6.89046875 0.10546875 7.23046875 C-0.22453125 12.51046875 -0.55453125 17.79046875 -0.89453125 23.23046875 C5.37546875 23.23046875 11.64546875 23.23046875 18.10546875 23.23046875 C18.10546875 25.54046875 18.10546875 27.85046875 18.10546875 30.23046875 C11.83546875 30.23046875 5.56546875 30.23046875 -0.89453125 30.23046875 C-0.56453125 36.50046875 -0.23453125 42.77046875 0.10546875 49.23046875 C7.69546875 49.56046875 15.28546875 49.89046875 23.10546875 50.23046875 C23.10546875 52.21046875 23.10546875 54.19046875 23.10546875 56.23046875 C18.62143465 56.27998663 14.13754636 56.31624401 9.65332031 56.34033203 C8.12855252 56.35037619 6.60380391 56.36401406 5.07910156 56.38134766 C2.88471737 56.40566613 0.69058833 56.41696764 -1.50390625 56.42578125 C-3.48342285 56.4414917 -3.48342285 56.4414917 -5.50292969 56.45751953 C-10.70204762 56.10946456 -10.70204762 56.10946456 -12.89453125 54.23046875 C-14.99818771 48.98048842 -15.18927188 44.04053931 -15.16015625 38.48046875 C-15.1620697 37.66352539 -15.16398315 36.84658203 -15.16595459 36.00488281 C-15.1673084 34.28710622 -15.16366849 32.56931911 -15.15527344 30.8515625 C-15.1445623 28.23804512 -15.15519602 25.62521502 -15.16796875 23.01171875 C-15.16664701 21.33463392 -15.16408432 19.65754951 -15.16015625 17.98046875 C-15.16420471 17.20735352 -15.16825317 16.43423828 -15.17242432 15.63769531 C-15.13186945 10.89238682 -14.83932805 6.63736991 -12.89453125 2.23046875 C-8.70198797 0.01584847 -4.67887422 -0.01633171 0 0 Z " fill="#425390" transform="translate(339.89453125,94.76953125)"/>
<path d="M0 0 C1.93359375 0.00966797 1.93359375 0.00966797 3.90625 0.01953125 C5.25260692 0.03623787 6.59896109 0.05316771 7.9453125 0.0703125 C9.31509767 0.08035586 10.68488992 0.08947933 12.0546875 0.09765625 C15.39341006 0.12116838 18.73177011 0.1540332 22.0703125 0.1953125 C22.0703125 2.1753125 22.0703125 4.1553125 22.0703125 6.1953125 C14.8103125 6.5253125 7.5503125 6.8553125 0.0703125 7.1953125 C-1.4104723 10.1568821 -1.28282787 13.03037545 -1.4921875 16.3203125 C-1.57597656 17.60164063 -1.65976562 18.88296875 -1.74609375 20.203125 C-1.80667969 21.19054687 -1.86726562 22.17796875 -1.9296875 23.1953125 C-1.07419312 23.18745728 -1.07419312 23.18745728 -0.20141602 23.17944336 C2.36831573 23.15873029 4.93802997 23.1456706 7.5078125 23.1328125 C8.85456055 23.12024414 8.85456055 23.12024414 10.22851562 23.10742188 C11.08251953 23.10419922 11.93652344 23.10097656 12.81640625 23.09765625 C14.00254517 23.08980103 14.00254517 23.08980103 15.21264648 23.08178711 C17.0703125 23.1953125 17.0703125 23.1953125 18.0703125 24.1953125 C18.1953125 26.6953125 18.1953125 26.6953125 18.0703125 29.1953125 C17.0703125 30.1953125 17.0703125 30.1953125 15.21264648 30.30883789 C14.42188721 30.30360107 13.63112793 30.29836426 12.81640625 30.29296875 C11.96240234 30.28974609 11.10839844 30.28652344 10.22851562 30.28320312 C8.88176758 30.27063477 8.88176758 30.27063477 7.5078125 30.2578125 C6.60611328 30.25330078 5.70441406 30.24878906 4.77539062 30.24414062 C2.54029936 30.23231475 0.30533813 30.2158347 -1.9296875 30.1953125 C-1.78950924 33.17484609 -1.64282408 36.15380554 -1.4921875 39.1328125 C-1.45287109 39.98294922 -1.41355469 40.83308594 -1.37304688 41.70898438 C-1.33115234 42.51787109 -1.28925781 43.32675781 -1.24609375 44.16015625 C-1.20943604 44.909021 -1.17277832 45.65788574 -1.13500977 46.42944336 C-1.11197687 48.21992576 -1.11197687 48.21992576 0.0703125 49.1953125 C1.77595028 49.35271855 3.48758494 49.44624642 5.19921875 49.51171875 C6.75092773 49.57456055 6.75092773 49.57456055 8.33398438 49.63867188 C9.42259766 49.67798828 10.51121094 49.71730469 11.6328125 49.7578125 C12.72529297 49.80099609 13.81777344 49.84417969 14.94335938 49.88867188 C17.65220814 49.99513318 20.36115242 50.09714766 23.0703125 50.1953125 C23.0703125 52.1753125 23.0703125 54.1553125 23.0703125 56.1953125 C18.60460801 56.2696964 14.13923566 56.32402421 9.6730957 56.36010742 C8.15512812 56.37515603 6.63720374 56.39559988 5.11938477 56.42163086 C2.93234573 56.45818903 0.74588354 56.47507773 -1.44140625 56.48828125 C-3.41306763 56.51184692 -3.41306763 56.51184692 -5.42456055 56.53588867 C-9.14844158 56.17405723 -11.02162577 55.51288076 -13.9296875 53.1953125 C-14.85402328 50.42230517 -15.06064632 48.74225612 -15.07495117 45.87915039 C-15.08133102 45.01137466 -15.08771088 44.14359894 -15.09428406 43.24952698 C-15.09539688 42.31511276 -15.0965097 41.38069855 -15.09765625 40.41796875 C-15.10098465 39.45507431 -15.10431305 38.49217987 -15.10774231 37.50010681 C-15.1128055 35.46337359 -15.11515082 33.42663208 -15.11499023 31.38989258 C-15.11717652 28.27346135 -15.13533817 25.1573842 -15.15429688 22.04101562 C-15.15723094 20.06250121 -15.15921565 18.08398512 -15.16015625 16.10546875 C-15.16734177 15.17307877 -15.17452728 14.24068878 -15.18193054 13.28004456 C-15.17885391 12.40911667 -15.17577728 11.53818878 -15.17260742 10.64086914 C-15.17403244 9.87714493 -15.17545746 9.11342072 -15.17692566 8.32655334 C-14.89071453 5.85935794 -14.26770101 4.28347197 -12.9296875 2.1953125 C-8.58755992 0.19870568 -4.73448827 -0.04189813 0 0 Z " fill="#3C4E8D" transform="translate(554.9296875,94.8046875)"/>
<path d="M0 0 C3.00090231 2.39655393 5.59107008 5.12360114 7.6875 8.34765625 C7.6875 9.00765625 7.6875 9.66765625 7.6875 10.34765625 C5.7075 11.00765625 3.7275 11.66765625 1.6875 12.34765625 C1.38457031 11.86554688 1.08164062 11.3834375 0.76953125 10.88671875 C-2.67418697 5.68791527 -2.67418697 5.68791527 -8.3125 3.34765625 C-13.31507141 2.90099809 -16.36722333 3.14878327 -20.3125 6.34765625 C-26.13890976 13.00641026 -26.59124459 21.39911474 -26.25 29.91015625 C-25.60809776 36.1004549 -24.1238084 41.35148513 -20.3125 46.34765625 C-16.33133038 49.1038506 -13.44000104 49.65053875 -8.75 48.97265625 C-3.71928156 47.61393229 -1.11762212 44.5954126 1.6875 40.34765625 C2.1825 39.35765625 2.1825 39.35765625 2.6875 38.34765625 C4.3375 39.00765625 5.9875 39.66765625 7.6875 40.34765625 C7.17685064 44.81583816 5.86621766 47.16893859 2.6875 50.34765625 C-4.02584457 55.22510659 -10.63625978 57.17454405 -18.88671875 55.97265625 C-26.78135182 54.0382898 -31.7869643 49.60426807 -36.6875 43.28515625 C-41.28471713 34.97480221 -41.83474977 24.79215076 -39.66015625 15.5859375 C-36.83848395 8.64680348 -31.91964646 2.38083328 -25.25 -1.15234375 C-17.42928741 -4.15206913 -7.31626084 -4.39921719 0 0 Z " fill="#37498A" transform="translate(411.3125,96.65234375)"/>
<path d="M0 0 C3.96 0 7.92 0 12 0 C12 18.48 12 36.96 12 56 C7.71 56 3.42 56 -1 56 C-1.02463956 48.18546786 -1.04283105 40.37095812 -1.05493164 32.55639648 C-1.05997383 29.89558519 -1.06680736 27.23477668 -1.07543945 24.57397461 C-1.08751009 20.75894484 -1.09322929 16.94395156 -1.09765625 13.12890625 C-1.10281754 11.93100967 -1.10797882 10.7331131 -1.11329651 9.49891663 C-1.11337204 8.3978508 -1.11344757 7.29678497 -1.11352539 6.16235352 C-1.115746 5.18750504 -1.11796661 4.21265656 -1.12025452 3.20826721 C-1 1 -1 1 0 0 Z " fill="#3FB8A3" transform="translate(748,95)"/>
<path d="M0 0 C1.34882408 0.63474075 2.6846659 1.29848848 4 2 C5.3242287 2.36784131 6.65613912 2.71202981 8 3 C9.47006623 7.41019868 8.43537323 10.69388031 7 15 C8.32 15.33 9.64 15.66 11 16 C10.67 17.98 10.34 19.96 10 22 C10.58007812 22.12117188 11.16015625 22.24234375 11.7578125 22.3671875 C16.28028442 23.33735474 20.63750966 24.43397783 25 26 C24.505 24.515 24.505 24.515 24 23 C25.32 22.34 26.64 21.68 28 21 C28.66 21.99 29.32 22.98 30 24 C33.18057553 23.20741702 33.18057553 23.20741702 35.3125 20.5 C38.37685864 17.64943382 39.8788128 17.17536967 44 17 C46.375 17.4375 46.375 17.4375 48 18 C47.6875 20.875 47.6875 20.875 47 24 C46.01 24.66 45.02 25.32 44 26 C42.7811879 29.55672179 42.7811879 29.55672179 42 33 C41.34 33 40.68 33 40 33 C40 34.98 40 36.96 40 39 C34.125 37.125 34.125 37.125 33 36 C32.95936168 34.33382885 32.957279 32.66611905 33 31 C31.68 31 30.36 31 29 31 C29.268125 32.216875 29.53625 33.43375 29.8125 34.6875 C30.26844145 38.63899254 30.26844145 38.63899254 28.1875 41.4375 C27.13489414 42.3038301 26.07018629 43.15548343 25 44 C23.30785997 45.53657232 21.62075332 47.07869776 19.9375 48.625 C15.24253159 52.86421647 15.24253159 52.86421647 12.78125 54.2421875 C9.48939507 57.49072855 9.7873816 62.4115647 9.31054688 66.83984375 C8.53365566 72.55024158 8.53365566 72.55024158 5.58984375 75.03125 C3 76 3 76 0 76 C-3.09078508 72.84597635 -4.17958732 69.06022715 -5.5625 64.9375 C-6.81135007 61.22985477 -7.82705609 58.25941587 -10 55 C-10.4140625 52.08203125 -10.4140625 52.08203125 -10.625 48.8125 C-10.69976562 47.72582031 -10.77453125 46.63914063 -10.8515625 45.51953125 C-10.90054688 44.68808594 -10.94953125 43.85664062 -11 43 C-11.77859375 43.03222656 -12.5571875 43.06445312 -13.359375 43.09765625 C-16 43 -16 43 -18.25 41.4375 C-20.48342371 38.32665983 -20.70980098 35.77258731 -21 32 C-18.03 31.505 -18.03 31.505 -15 31 C-15.5259375 30.13375 -15.5259375 30.13375 -16.0625 29.25 C-17 27 -17 27 -17 24.9375 C-16 23 -16 23 -13.25 21.75 C-8.89200107 19.40338519 -7.29172029 16.26908957 -5 12 C-5.66 12 -6.32 12 -7 12 C-7.185625 10.2984375 -7.185625 10.2984375 -7.375 8.5625 C-7.58125 7.386875 -7.7875 6.21125 -8 5 C-8.66 4.67 -9.32 4.34 -10 4 C-7.55736066 -1.4087014 -5.65760416 -1.24467292 0 0 Z M-6 1 C-6.33 1.99 -6.66 2.98 -7 4 C-6.34 4.33 -5.68 4.66 -5 5 C-5.185625 5.61875 -5.37125 6.2375 -5.5625 6.875 C-6.23686176 9.04160178 -6.23686176 9.04160178 -5 11 C-4.34 11 -3.68 11 -3 11 C-7.58139535 20.58139535 -7.58139535 20.58139535 -10 23 C-12.6875 23.75 -12.6875 23.75 -15 24 C-14.51421457 27.12290635 -14.0013988 29.99580359 -13 33 C-14.98 33 -16.96 33 -19 33 C-18.67 33.99 -18.34 34.98 -18 36 C-17.01 36.33 -16.02 36.66 -15 37 C-15.66 37.66 -16.32 38.32 -17 39 C-16.34 39.66 -15.68 40.32 -15 41 C-13.68 41 -12.36 41 -11 41 C-11 40.01 -11 39.02 -11 38 C-10.34 38 -9.68 38 -9 38 C-9.03480469 39.17755859 -9.03480469 39.17755859 -9.0703125 40.37890625 C-9.23554534 49.9978179 -7.21819409 56.74123478 -3.17578125 65.3984375 C-1.90478528 68.21067442 -0.87939704 71.04202814 0 74 C2.16874252 73.49396008 3.99967627 73.00016187 6 72 C7.54231261 66.91944081 8.25782468 62.18221065 8.4609375 56.8828125 C9 55 9 55 10.85546875 53.95703125 C11.56316406 53.64121094 12.27085937 53.32539062 13 53 C14.56252106 51.39317737 14.56252106 51.39317737 15.9375 49.5625 C18.35572978 46.59047714 20.69024319 44.94691577 24 43 C24 42.01 24 41.02 24 40 C25.32 39.34 26.64 38.68 28 38 C27.505 33.545 27.505 33.545 27 29 C29.97 29 32.94 29 36 29 C35.505 31.475 35.505 31.475 35 34 C35.99 34.33 36.98 34.66 38 35 C40.26917113 32.42139644 41.08219599 30.69690227 42 27.3125 C42.33 26.219375 42.66 25.12625 43 24 C43.99 23.67 44.98 23.34 46 23 C46 22.01 46 21.02 46 20 C41.72297174 18.86645921 41.72297174 18.86645921 37.6875 20.25 C35.76228767 21.99500355 35.76228767 21.99500355 35 25 C33.700625 24.979375 32.40125 24.95875 31.0625 24.9375 C29.70834367 24.91600546 28.35243917 24.92851801 27 25 C26.505 25.495 26.505 25.495 26 26 C20.09133053 26.49238912 15.49901323 25.09486218 10 23 C10 21.68 10 20.36 10 19 C9.13375 18.05125 8.2675 17.1025 7.375 16.125 C6.59125 15.09375 5.8075 14.0625 5 13 C5.6875 9.8125 5.6875 9.8125 7 7 C7 6.01 7 5.02 7 4 C5.6078125 4.0928125 5.6078125 4.0928125 4.1875 4.1875 C0.55696677 3.97393922 0.31097017 3.52105837 -2 1 C-3.32 1 -4.64 1 -6 1 Z " fill="#4D4D4D" transform="translate(131,54)"/>
<path d="M0 0 C2.4375 1.625 2.4375 1.625 4 4 C4.49366687 7.38514427 4.37766945 9.26453845 2.8125 12.3125 C0.48449908 14.47994914 -0.8217219 14.92432671 -4 15 C-7.48634601 13.37844371 -8.84302194 12.23546708 -11 9 C-10.8096754 5.95480635 -10.45228903 3.75381505 -8.875 1.125 C-5.83167192 -0.70099685 -3.45750445 -0.42460581 0 0 Z " fill="#43BAA5" transform="translate(757,73)"/>
<path d="M0 0 C-0.3125 2.875 -0.3125 2.875 -1 6 C-1.99 6.66 -2.98 7.32 -4 8 C-5.2188121 11.55672179 -5.2188121 11.55672179 -6 15 C-6.66 15 -7.32 15 -8 15 C-8 16.98 -8 18.96 -8 21 C-13.875 19.125 -13.875 19.125 -15 18 C-15.04063832 16.33382885 -15.042721 14.66611905 -15 13 C-16.65 13.33 -18.3 13.66 -20 14 C-20.33 12.68 -20.66 11.36 -21 10 C-18.03 10.33 -15.06 10.66 -12 11 C-12.33 12.65 -12.66 14.3 -13 16 C-12.01 16 -11.02 16 -10 16 C-7.81024227 12.71536341 -7.00193437 9.79303725 -6 6 C-4.68 5.67 -3.36 5.34 -2 5 C-2 4.01 -2 3.02 -2 2 C-7.33450958 1.73484883 -7.33450958 1.73484883 -12 4 C-12.80528889 6.05000871 -12.80528889 6.05000871 -13 8 C-19.4 8.36923077 -19.4 8.36923077 -22.4375 6.5 C-22.953125 6.005 -23.46875 5.51 -24 5 C-22.68 4.34 -21.36 3.68 -20 3 C-19.01 4.485 -19.01 4.485 -18 6 C-14.81585757 5.19334071 -14.81585757 5.19334071 -12.5625 2.5 C-8.29236618 -1.66598421 -5.6894005 -1.16374101 0 0 Z " fill="#5A5A5A" transform="translate(179,72)"/>
<path d="M0 0 C3.47228283 1.48812121 5.90605495 3.68229909 7.96875 6.84375 C8.47259695 9.70745155 8.27219822 11.91041721 7.96875 14.84375 C6.97875 14.84375 5.98875 14.84375 4.96875 14.84375 C4.68 13.77125 4.39125 12.69875 4.09375 11.59375 C3.24054891 8.74974636 2.4050997 6.40866017 0.96875 3.84375 C-3.7392478 7.0873849 -3.7392478 7.0873849 -5.90625 12.15625 C-5.9475 13.043125 -5.98875 13.93 -6.03125 14.84375 C-7.02125 14.84375 -8.01125 14.84375 -9.03125 14.84375 C-9.86099815 8.08722933 -9.86099815 8.08722933 -7.61328125 4.71875 C-2.93772137 -0.22597857 -2.93772137 -0.22597857 0 0 Z " fill="#DEBB39" transform="translate(136.03125,82.15625)"/>
<path d="M0 0 C0.33 0.66 0.66 1.32 1 2 C0.29875 2.680625 -0.4025 3.36125 -1.125 4.0625 C-7.46956057 10.47854858 -11.88148925 16.92362963 -16 25 C-16.8971875 24.690625 -16.8971875 24.690625 -17.8125 24.375 C-20.28450846 23.69328085 -20.28450846 23.69328085 -23 26 C-19.60101633 16.1571098 -9.35406596 4.67703298 0 0 Z " fill="#53BFAC" transform="translate(91,46)"/>
<path d="M0 0 C0.33 0.66 0.66 1.32 1 2 C1.66 2 2.32 2 3 2 C3.69921875 3.72265625 3.69921875 3.72265625 4 6 C2.70703125 8.18359375 2.70703125 8.18359375 0.8125 10.4375 C0.15765625 11.22640625 -0.4971875 12.0153125 -1.171875 12.828125 C-1.77515625 13.54484375 -2.3784375 14.2615625 -3 15 C-3.639375 15.886875 -4.27875 16.77375 -4.9375 17.6875 C-7.89063606 20.99859194 -11.38753463 23.44847713 -15 26 C-15.66 25.67 -16.32 25.34 -17 25 C-16.01 24.67 -15.02 24.34 -14 24 C-13.28954312 22.68947596 -12.62881727 21.35159575 -12 20 C-10.92013878 18.626373 -9.81367077 17.2734232 -8.6875 15.9375 C-4.77800697 11.03018657 -2.34746146 5.78752019 0 0 Z " fill="#485994" transform="translate(199,132)"/>
<path d="M0 0 C1.32 0.33 2.64 0.66 4 1 C5.47006623 5.41019868 4.43537323 8.69388031 3 13 C4.32 13.33 5.64 13.66 7 14 C6.67 15.98 6.34 17.96 6 20 C6.58007812 20.12117188 7.16015625 20.24234375 7.7578125 20.3671875 C12.28028442 21.33735474 16.63750966 22.43397783 21 24 C21.33 23.34 21.66 22.68 22 22 C22 22.99 22 23.98 22 25 C16.36120032 25.35992338 11.03881526 24.75031057 6 22 C4.67578125 20.015625 4.67578125 20.015625 4 18 C4.33 17.34 4.66 16.68 5 16 C3.35 14.35 1.7 12.7 0 11 C0.99 8.03 1.98 5.06 3 2 C1.35 2.33 -0.3 2.66 -2 3 C-1.34 2.01 -0.68 1.02 0 0 Z " fill="#4A4A4A" transform="translate(135,56)"/>
<path d="M0 0 C0.66 0 1.32 0 2 0 C3.58649976 3.47046822 4.66740214 6.18627347 4 10 C2.39471361 11.92634367 0.88409275 13.3707402 -1 15 C-1.79792969 15.72960937 -2.59585938 16.45921875 -3.41796875 17.2109375 C-14.14158576 27 -14.14158576 27 -17 27 C-17.33 27.66 -17.66 28.32 -18 29 C-17.67 27.68 -17.34 26.36 -17 25 C-16.360625 24.896875 -15.72125 24.79375 -15.0625 24.6875 C-14.0415625 24.3471875 -14.0415625 24.3471875 -13 24 C-12.67 23.01 -12.34 22.02 -12 21 C-10.22265625 19.17578125 -10.22265625 19.17578125 -8.0625 17.3125 C-7.35222656 16.68988281 -6.64195312 16.06726563 -5.91015625 15.42578125 C-4 14 -4 14 -2 14 C-2 13.01 -2 12.02 -2 11 C-1.01 10.34 -0.02 9.68 1 9 C0.67 6.03 0.34 3.06 0 0 Z " fill="#494949" transform="translate(157,83)"/>
<path d="M0 0 C0.66 1.32 1.32 2.64 2 4 C1.34 4.66 0.68 5.32 0 6 C0.66 6 1.32 6 2 6 C0 12 -2 18 -4 24 C-4.33 24 -4.66 24 -5 24 C-4.69475466 15.39208128 -3.06606823 8.04308131 0 0 Z " fill="#828DB6" transform="translate(80,75)"/>
<path d="M0 0 C0.33 0 0.66 0 1 0 C1.43230491 7.34918342 -0.18225815 13.90215087 -2 21 C-3.32 20.67 -4.64 20.34 -6 20 C-4 13.33333333 -2 6.66666667 0 0 Z " fill="#7ACEBF" transform="translate(218,116)"/>
<path d="M0 0 C1.875 2.0625 1.875 2.0625 3 4 C2.01 4 1.02 4 0 4 C-0.66 3.34 -1.32 2.68 -2 2 C-3.32 2 -4.64 2 -6 2 C-6.33 2.66 -6.66 3.32 -7 4 C-6.01 4.33 -5.02 4.66 -4 5 C-4.99 5.495 -4.99 5.495 -6 6 C-5.67 7.65 -5.34 9.3 -5 11 C-5.99 11.495 -5.99 11.495 -7 12 C-7.12375 10.865625 -7.2475 9.73125 -7.375 8.5625 C-7.58125 7.386875 -7.7875 6.21125 -8 5 C-8.66 4.67 -9.32 4.34 -10 4 C-7.6080461 -1.29646934 -5.59815618 -1.48522511 0 0 Z " fill="#575757" transform="translate(131,54)"/>
<path d="M0 0 C-0.804375 0.86625 -1.60875 1.7325 -2.4375 2.625 C-4.96924136 5.62876093 -5.71657376 8.03203262 -6 12 C-6.99 12 -7.98 12 -9 12 C-9.48539326 4.71910112 -9.48539326 4.71910112 -7.3125 1.5 C-4.62023779 -0.24633224 -3.14839906 -0.34982212 0 0 Z " fill="#358D8B" transform="translate(136,85)"/>
<path d="M0 0 C1.37562854 1.28965176 2.70766393 2.62689293 4 4 C4 4.66 4 5.32 4 6 C2.02 6.66 0.04 7.32 -2 8 C-2.66 6.35 -3.32 4.7 -4 3 C-3.34 3 -2.68 3 -2 3 C-2 2.34 -2 1.68 -2 1 C-1.34 0.67 -0.68 0.34 0 0 Z " fill="#4D5D98" transform="translate(415,101)"/>
<path d="M0 0 C1.65 0 3.3 0 5 0 C4.01 1.485 4.01 1.485 3 3 C4.98 3.99 6.96 4.98 9 6 C9 8.31 9 10.62 9 13 C8.67 13 8.34 13 8 13 C8 11.02 8 9.04 8 7 C7.2575 7.0825 6.515 7.165 5.75 7.25 C2.21842973 6.92894816 1.23369636 5.64734383 -1 3 C-0.67 2.01 -0.34 1.02 0 0 Z " fill="#636363" transform="translate(112,90)"/>
<path d="M0 0 C0.66 0.66 1.32 1.32 2 2 C1.34 2 0.68 2 0 2 C-0.33 3.32 -0.66 4.64 -1 6 C-7.4 6.36923077 -7.4 6.36923077 -10.4375 4.5 C-10.953125 4.005 -11.46875 3.51 -12 3 C-10.68 2.34 -9.36 1.68 -8 1 C-7.34 1.99 -6.68 2.98 -6 4 C-3.00667261 3.0022242 -2.05233685 2.2477975 0 0 Z " fill="#626262" transform="translate(167,74)"/>
<path d="M0 0 C2.42793704 2.16950116 3.6056281 4.00005839 4.6875 7.0625 C4.93886719 7.75472656 5.19023437 8.44695312 5.44921875 9.16015625 C6 11 6 11 6 13 C6.99 13 7.98 13 9 13 C8.67 13.99 8.34 14.98 8 16 C3.61596344 12.20840082 1.45050343 8.63691577 0 3 C0 2.01 0 1.02 0 0 Z " fill="#505050" transform="translate(125,115)"/>
<path d="M0 0 C0.99 0.33 1.98 0.66 3 1 C4 4 4 4 2.5625 7.1875 C1.7890625 8.5796875 1.7890625 8.5796875 1 10 C0.01 10 -0.98 10 -2 10 C-1.34 6.7 -0.68 3.4 0 0 Z " fill="#435492" transform="translate(82,71)"/>
<path d="M0 0 C0.33 0.66 0.66 1.32 1 2 C-6.86448598 10.08294393 -6.86448598 10.08294393 -12 11 C-8.68542782 6.30435607 -4.63720719 3.27530896 0 0 Z " fill="#89D4C6" transform="translate(91,46)"/>
<path d="M0 0 C0.66 0.33 1.32 0.66 2 1 C2 3.64 2 6.28 2 9 C1.01 9 0.02 9 -1 9 C-1.66 6.36 -2.32 3.72 -3 1 C-2.01 0.67 -1.02 0.34 0 0 Z " fill="#297974" transform="translate(142,88)"/>
<path d="M0 0 C-0.33 0.99 -0.66 1.98 -1 3 C-5.51617599 3.07654536 -9.59085217 3.10228696 -14 2 C-14 1.67 -14 1.34 -14 1 C-8.80451575 -1.20808081 -5.41735797 -0.93402724 0 0 Z " fill="#D9D9D9" transform="translate(166,80)"/>
<path d="M0 0 C0.99 0.66 1.98 1.32 3 2 C0.03 4.31 -2.94 6.62 -6 9 C-6.66 8.67 -7.32 8.34 -8 8 C-7.01 7.67 -6.02 7.34 -5 7 C-4.29848848 5.6846659 -3.63474075 4.34882408 -3 3 C-1.375 1.25 -1.375 1.25 0 0 Z " fill="#8893B9" transform="translate(190,149)"/>
<path d="M0 0 C0 3 0 3 -1.4609375 4.60546875 C-2.09257812 5.12753906 -2.72421875 5.64960937 -3.375 6.1875 C-4.00148437 6.71730469 -4.62796875 7.24710937 -5.2734375 7.79296875 C-7 9 -7 9 -9 9 C-9.33 9.66 -9.66 10.32 -10 11 C-9.67 9.68 -9.34 8.36 -9 7 C-8.360625 6.896875 -7.72125 6.79375 -7.0625 6.6875 C-6.381875 6.460625 -5.70125 6.23375 -5 6 C-4.67 5.01 -4.34 4.02 -4 3 C-1.9375 1.3125 -1.9375 1.3125 0 0 Z " fill="#434343" transform="translate(149,101)"/>
<path d="M0 0 C1.65 0 3.3 0 5 0 C5 1.65 5 3.3 5 5 C3.35 5 1.7 5 0 5 C0 3.35 0 1.7 0 0 Z " fill="#474747" transform="translate(133,92)"/>
<path d="M0 0 C0.66 0 1.32 0 2 0 C2 2.31 2 4.62 2 7 C1.01 7.33 0.02 7.66 -1 8 C-1.33 8.99 -1.66 9.98 -2 11 C-1.855625 10.29875 -1.71125 9.5975 -1.5625 8.875 C-0.98521625 5.92443859 -0.48304859 2.96729849 0 0 Z " fill="#4F4F4F" transform="translate(172,79)"/>
<path d="M0 0 C0.33 0.66 0.66 1.32 1 2 C-0.32 3.65 -1.64 5.3 -3 7 C-3.99 6.67 -4.98 6.34 -6 6 C-4.95125002 3.37812506 -4.35068687 2.20628639 -1.875 0.75 C-1.25625 0.5025 -0.6375 0.255 0 0 Z " fill="#60C4B2" transform="translate(82,55)"/>
<path d="M0 0 C0.66 0 1.32 0 2 0 C2.33 2.64 2.66 5.28 3 8 C2.01 8 1.02 8 0 8 C0 5.36 0 2.72 0 0 Z " fill="#2E746A" transform="translate(127,89)"/>
<path d="M0 0 C0.33 0.99 0.66 1.98 1 3 C-0.32 4.32 -1.64 5.64 -3 7 C-3.99 6.67 -4.98 6.34 -6 6 C-4.02 4.02 -2.04 2.04 0 0 Z " fill="#445592" transform="translate(98,50)"/>
<path d="M0 0 C0.33 0 0.66 0 1 0 C0.4140625 6.15234375 0.4140625 6.15234375 0 8 C-0.99 8.495 -0.99 8.495 -2 9 C-2.25 3.375 -2.25 3.375 0 0 Z " fill="#475794" transform="translate(79,82)"/>
</svg>
